<svg width="30" height="31" viewBox="0 0 30 31" fill="none" xmlns="http://www.w3.org/2000/svg">
<g clip-path="url(#clip0_8_3137)">
<path d="M18.8133 6.75C20.0342 6.98821 21.1563 7.58532 22.0359 8.46492C22.9155 9.34452 23.5126 10.4666 23.7508 11.6875M18.8133 1.75C21.3499 2.0318 23.7153 3.16772 25.5211 4.97126C27.3269 6.7748 28.4658 9.13876 28.7508 11.675M27.5008 21.65V25.4C27.5022 25.7481 27.4309 26.0927 27.2914 26.4117C27.1519 26.7307 26.9474 27.017 26.6909 27.2523C26.4343 27.4877 26.1315 27.6669 25.8017 27.7784C25.4719 27.8899 25.1225 27.9313 24.7758 27.9C20.9293 27.4821 17.2345 26.1677 13.9883 24.0625C10.9681 22.1433 8.40744 19.5827 6.48827 16.5625C4.37574 13.3015 3.06107 9.58874 2.65077 5.725C2.61953 5.37933 2.66061 5.03095 2.7714 4.70203C2.88218 4.37311 3.06023 4.07086 3.29423 3.81453C3.52822 3.55819 3.81303 3.35339 4.13051 3.21315C4.44799 3.07292 4.7912 3.00033 5.13827 3H8.88827C9.4949 2.99403 10.083 3.20885 10.543 3.60442C11.0029 3.99998 11.3034 4.54931 11.3883 5.15C11.5465 6.35008 11.8401 7.52841 12.2633 8.6625C12.4315 9.10991 12.4678 9.59614 12.3682 10.0636C12.2685 10.5311 12.0368 10.9601 11.7008 11.3L10.1133 12.8875C11.8927 16.0169 14.4838 18.6081 17.6133 20.3875L19.2008 18.8C19.5406 18.4639 19.9697 18.2323 20.4372 18.1326C20.9046 18.0329 21.3909 18.0693 21.8383 18.2375C22.9724 18.6607 24.1507 18.9542 25.3508 19.1125C25.958 19.1982 26.5125 19.504 26.9089 19.9719C27.3054 20.4397 27.516 21.037 27.5008 21.65Z" stroke="#FAEFC4" stroke-width="2" stroke-linecap="round" stroke-linejoin="round"/>
</g>
<defs>
<clipPath id="clip0_8_3137">
<rect width="30" height="30" fill="white" transform="translate(0 0.5)"/>
</clipPath>
</defs>
</svg>
